<?xml version="1.0" encoding="UTF-8"?>
<svg id="Layer_2" data-name="Layer 2" xmlns="http://www.w3.org/2000/svg" viewBox="0 0 576 576">
  <defs>
    <style>
      .cls-1 {
        fill: #d9e021;
        stroke-width: 4px;
      }

      .cls-1, .cls-2, .cls-3, .cls-4, .cls-5, .cls-6, .cls-7, .cls-8 {
        stroke: #000;
        stroke-miterlimit: 10;
      }

      .cls-2 {
        fill: #9e005d;
        stroke-width: 6px;
      }

      .cls-3 {
        fill: #ed1c24;
      }

      .cls-3, .cls-5, .cls-6, .cls-7, .cls-8 {
        stroke-width: 5px;
      }

      .cls-4 {
        stroke-width: 3px;
      }

      .cls-4, .cls-5 {
        fill: #2e3192;
      }

      .cls-6 {
        fill: #0071bc;
      }

      .cls-7 {
        fill: #f7931e;
      }

      .cls-8 {
        fill: #662d91;
      }
    </style>
  </defs>
  <rect class="cls-7" x="280.21" y="164.09" width="15.57" height="46.71" rx="7.79" ry="7.79"/>
  <rect class="cls-2" x="240" y="384" width="48" height="61.07" rx="12" ry="12"/>
  <rect class="cls-2" x="288" y="384" width="48" height="61.07" rx="12" ry="12"/>
  <rect class="cls-4" x="185.33" y="295.63" width="16.6" height="72.3" rx="8.3" ry="8.3"/>
  <rect class="cls-4" x="375.7" y="295.63" width="16.6" height="72.3" rx="8.3" ry="8.3"/>
  <path class="cls-8" d="M206.39,264.88l56.18,25.1c7.81,3.49,16.62-2.23,16.62-10.78v-50.2c0-8.55-8.81-14.27-16.62-10.78l-56.18,25.1c-9.32,4.16-9.32,17.39,0,21.56Z"/>
  <path class="cls-3" d="M114.68,380.9l86.33,27.2c7.61,2.4,15.35-3.28,15.35-11.26v-54.41c0-7.98-7.75-13.66-15.35-11.26l-86.33,27.2c-11.01,3.47-11.01,19.05,0,22.52Z"/>
  <path class="cls-3" d="M459.42,380.9l-86.33,27.2c-7.61,2.4-15.35-3.28-15.35-11.26v-54.41c0-7.98,7.75-13.66,15.35-11.26l86.33,27.2c11.01,3.47,11.01,19.05,0,22.52Z"/>
  <path class="cls-8" d="M373.24,264.88l-56.18,25.1c-7.81,3.49-16.62-2.23-16.62-10.78v-50.2c0-8.55,8.81-14.27,16.62-10.78l56.18,25.1c9.32,4.16,9.32,17.39,0,21.56Z"/>
  <path class="cls-6" d="M345.93,298.34l73.49,94.88c7.41,9.57-.52,23.3-12.51,21.67l-118.92-16.21-118.92,16.21c-11.99,1.63-19.92-12.1-12.51-21.67l73.49-94.88,45.42-111.09c4.58-11.2,20.44-11.2,25.02,0l45.42,111.09Z"/>
  <path class="cls-1" d="M288.82,309.89l-30.44,30.44c-2.71,2.71-2.71,7.11,0,9.83l25.53,25.53c2.71,2.71,7.11,2.71,9.83,0l25.53-25.53c2.71-2.71,2.71-7.11,0-9.83l-30.44-30.44Z"/>
  <path class="cls-1" d="M288.1,266.95l-12.31,12.31c-4.37,4.37-4.37,11.46,0,15.83l12.31,12.31c.52.52,1.35.52,1.87,0l13.64-13.64c3.64-3.64,3.64-9.53,0-13.17l-13.64-13.64c-.52-.52-1.35-.52-1.87,0Z"/>
  <path class="cls-5" d="M248.31,340.65h0c-7.99-12.98-26.87-12.98-34.86,0h0c-.8,1.48-1.38,2.99-1.79,4.52-4.6,1.34-8.8,4.3-11.63,8.9h0c-7.25,13.41,2.19,29.76,17.43,30.19h0c9.32-.26,16.46-6.48,18.95-14.33,11.85-3.65,18.23-17.58,11.9-29.28Z"/>
  <path class="cls-5" d="M364.64,344.99c-3.98-11.74-18.09-17.72-29.61-11.07h0c-12.75,8.36-12.22,27.22.99,34.85h0c1.5.76,3.03,1.3,4.57,1.66,1.47,4.56,4.55,8.67,9.23,11.37h0c13.61,6.87,29.69-3.03,29.69-18.28h0c-.53-9.31-6.94-16.27-14.86-18.54Z"/>
  <path class="cls-1" d="M283.31,223.37h11.93c9.82,0,17.79,7.97,17.79,17.79v5.13c0,6.62-5.38,12-12,12h-24c-6.62,0-12-5.38-12-12v-4.65c0-10.09,8.19-18.28,18.28-18.28Z"/>
</svg>